<svg viewBox="0 0 45 40" fill="none" xmlns="http://www.w3.org/2000/svg">
<path d="M22.5 17.8C20.5072 13.9243 15.0823 6.70284 10.037 3.1425C5.20433 -0.26933 3.36183 0.321003 2.15367 0.86917C0.754833 1.498 0.5 3.64667 0.5 4.908C0.5 6.173 1.193 15.2663 1.644 16.7862C3.13817 21.8022 8.45117 23.4962 13.3462 22.9535C13.5955 22.9168 13.8503 22.882 14.107 22.8508C13.854 22.8912 13.601 22.9242 13.3462 22.9535C6.17417 24.0168 -0.196667 26.6293 8.15783 35.9298C17.3483 45.4448 20.7528 33.8893 22.5 28.0318C24.2472 33.8893 26.2583 45.0287 36.6772 35.9298C44.5 28.0318 38.8258 24.0168 31.6538 22.9535C31.3994 22.9254 31.1458 22.8911 30.893 22.8508C31.1497 22.882 31.4045 22.9168 31.6538 22.9535C36.5488 23.498 41.8618 21.8022 43.356 16.7862C43.807 15.2682 44.5 6.17117 44.5 4.90984C44.5 3.64484 44.2452 1.498 42.8463 0.865503C41.6382 0.31917 39.7957 -0.271164 34.963 3.13884C29.9177 6.70467 24.4928 13.9262 22.5 17.8Z"/>
</svg>
