<svg width="42" height="40" viewBox="0 0 42 40" fill="currentColor" xmlns="http://www.w3.org/2000/svg">
<path d="M23.1074 0.00246071C24.6033 -0.00313955 26.0992 0.0115282 27.5946 0.0464594L27.9923 0.0604588C28.4515 0.0764583 28.9045 0.0964575 29.4518 0.120457C31.6329 0.220453 33.1212 0.556442 34.4269 1.05043C35.7799 1.55841 36.9196 2.24638 38.0594 3.35835C39.1015 4.35752 39.908 5.56616 40.4229 6.90023C40.9292 8.17418 41.2736 9.62813 41.3761 11.7561C41.4007 12.288 41.4212 12.732 41.4376 13.18L41.4499 13.568C41.4863 15.0263 41.502 16.4851 41.497 17.9439L41.4991 19.4358V22.0557C41.5041 23.5151 41.4884 24.9746 41.4519 26.4336L41.4396 26.8215C41.4232 27.2695 41.4027 27.7115 41.3781 28.2455C41.2756 30.3734 40.9272 31.8254 40.4229 33.0993C39.9097 34.4348 39.1029 35.6444 38.0594 36.6432C37.0343 37.6598 35.7949 38.4467 34.4269 38.9491C33.1212 39.4431 31.6329 39.7791 29.4518 39.8791C28.9045 39.9031 28.4515 39.9231 27.9923 39.9391L27.5946 39.9511C26.0992 39.9867 24.6033 40.002 23.1074 39.9971L21.5782 39.9991H18.8949C17.399 40.004 15.9031 39.9887 14.4077 39.9531L14.01 39.9411C13.5234 39.9239 13.0368 39.9039 12.5505 39.8811C10.3694 39.7811 8.88115 39.4411 7.57332 38.9491C6.20539 38.4478 4.96634 37.6608 3.94296 36.6432C2.89965 35.6438 2.09236 34.4344 1.57738 33.0993C1.07105 31.8254 0.726671 30.3734 0.624176 28.2455C0.601346 27.7709 0.580847 27.2963 0.56268 26.8215L0.55243 26.4336C0.514638 24.9746 0.497553 23.5152 0.501183 22.0557V17.9439C0.495462 16.4851 0.510496 15.0263 0.546281 13.568L0.56063 13.18C0.577029 12.732 0.597528 12.288 0.622127 11.7561C0.724621 9.62613 1.069 8.17618 1.57533 6.90023C2.09061 5.56551 2.89949 4.3572 3.94501 3.36035C4.96769 2.34189 6.20596 1.55355 7.57332 1.05043C8.88115 0.556442 10.3673 0.220453 12.5505 0.120457L14.01 0.0604588L14.4077 0.0504594C15.9024 0.0136063 17.3976 -0.0030616 18.8928 0.00046092L23.1074 0.00246071ZM21.0001 10.0021C19.6421 9.98338 18.2938 10.2282 17.0335 10.7222C15.7733 11.2163 14.6263 11.9498 13.6591 12.8801C12.692 13.8105 11.924 14.919 11.3998 16.1414C10.8756 17.3638 10.6057 18.6757 10.6057 20.0008C10.6057 21.3259 10.8756 22.6377 11.3998 23.8601C11.924 25.0825 12.692 26.1911 13.6591 27.1214C14.6263 28.0517 15.7733 28.7853 17.0335 29.2793C18.2938 29.7734 19.6421 30.0182 21.0001 29.9994C23.7185 29.9994 26.3255 28.9459 28.2476 27.0706C30.1698 25.1953 31.2496 22.6519 31.2496 19.9998C31.2496 17.3477 30.1698 14.8043 28.2476 12.929C26.3255 11.0537 23.7185 10.0021 21.0001 10.0021ZM21.0001 14.002C21.817 13.9873 22.6287 14.1316 23.3878 14.4264C24.1469 14.7212 24.8382 15.1606 25.4213 15.719C26.0044 16.2774 26.4676 16.9435 26.7838 17.6785C27.1 18.4135 27.263 19.2026 27.2631 19.9998C27.2632 20.7969 27.1006 21.586 26.7846 22.3211C26.4686 23.0562 26.0056 23.7225 25.4228 24.2811C24.8399 24.8397 24.1487 25.2793 23.3897 25.5744C22.6307 25.8695 21.8191 26.014 21.0022 25.9996C19.3712 25.9996 17.807 25.3675 16.6537 24.2423C15.5004 23.1171 14.8525 21.591 14.8525 19.9998C14.8525 18.4085 15.5004 16.8825 16.6537 15.7573C17.807 14.6321 19.3712 14 21.0022 14L21.0001 14.002ZM31.7621 7.00222C31.1008 7.02805 30.4753 7.30251 30.0168 7.76814C29.5583 8.23377 29.3022 8.85443 29.3022 9.50014C29.3022 10.1458 29.5583 10.7665 30.0168 11.2321C30.4753 11.6978 31.1008 11.9722 31.7621 11.9981C32.4417 11.9981 33.0934 11.7347 33.5739 11.2658C34.0545 10.797 34.3244 10.1612 34.3244 9.49814C34.3244 8.83512 34.0545 8.19926 33.5739 7.73043C33.0934 7.26161 32.4417 6.99822 31.7621 6.99822V7.00222Z"/>
</svg>
